<?xml version="1.0" encoding="utf-8"?>
<!DOCTYPE svg PUBLIC "-//W3C//DTD SVG 1.0//EN" "http://www.w3.org/TR/2001/REC-SVG-20010904/DTD/svg10.dtd">
<svg version="1.0" xmlns="http://www.w3.org/2000/svg" width="247px" height="247px" viewBox="0 0 247 247" preserveAspectRatio="xMidYMid meet">
 <!-- Cambio realizado: #010000 → #1f1d2b -->
 <g fill="#1f1d2b">
  <path d="M0 211.75 c0 -34.10 0.05 -35.25 0.95 -35.25 0.75 0 1 0.50 1.25 2.40 1 7.65 4.15 17.80 7.70 24.85 4.25 8.45 14.50 20.60 22.10 26.20 10.70 7.90 22.60 12.95 33.75 14.35 2.85 0.35 4.25 1.05 4.25 2.15 0 0.40 -10.45 0.55 -35 0.55 l-35 0 0 -35.25z"/>
  <path d="M176.50 246.45 c0 -1.10 1.50 -1.95 3.35 -1.95 2.40 0 12.85 -2.65 17.15 -4.35 19.15 -7.60 35.45 -23.80 42.90 -42.70 2.10 -5.25 4.05 -12.70 4.45 -16.75 0.30 -3.30 0.95 -4.70 2.10 -4.70 0.40 0 0.55 10.60 0.55 35.50 l0 35.50 -35.25 0 c-24.75 0 -35.25 -0.15 -35.25 -0.55z"/>
  <path d="M245.50 69.25 c0 -0.95 -0.20 -1.75 -0.40 -1.75 -0.20 0 -0.70 -1.65 -1 -3.60 -2.40 -13.95 -9.75 -28 -20.45 -39.20 -11.70 -12.25 -28.30 -20.45 -45.25 -22.50 -1.95 -0.20 -2.40 -0.45 -2.40 -1.25 0 -0.95 0.70 -0.95 35.50 -0.95 l35.50 0 0 35.50 c0 31.20 -0.10 35.50 -0.75 35.50 -0.50 0 -0.75 -0.55 -0.75 -1.75z"/>
  <path d="M0 35.25 l0 -35.25 35.25 0 c33.95 0 35.25 0.05 35.25 0.90 0 0.80 -0.80 1.10 -5.10 1.85 -10.15 1.75 -18.85 5 -27.30 10.20 -6.20 3.80 -9.25 6.30 -15.15 12.40 -10.90 11.30 -17.65 24.65 -20.25 40.05 -0.75 4.30 -1 5.10 -1.80 5.10 -0.85 0 -0.90 -1.45 -0.90 -35.25z"/>
 </g>
 <!-- Elementos rojos (sin cambios) -->
 <g fill="#fe0000">
  <path d="M68.25 246.55 c-0.55 -0.25 -2.35 -0.60 -4 -0.80 -11.10 -1.30 -23.05 -6.40 -33.75 -14.30 -7.60 -5.60 -17.85 -17.75 -22.10 -26.20 -2.35 -4.65 -5.05 -11.95 -6 -16.25 -2.50 -11.10 -2.40 -8.90 -2.40 -65.50 l0 -53.25 1.20 -6.50 c3.05 -16.35 9.30 -28.55 20.45 -40.10 7.60 -7.85 14.45 -12.70 23.70 -16.85 6.25 -2.80 9.20 -3.70 17.35 -5.30 l7.45 -1.50 53.05 0 c33.05 0 54.10 0.20 55.90 0.50 1.60 0.30 4.25 0.75 5.95 1.05 11.35 1.95 24.85 8.30 34.20 16.10 11.30 9.45 20 22.45 24.20 36.25 3.45 11.25 3.30 8 3.30 68.60 -0.05 40.80 -0.20 55.85 -0.65 59 -3.90 26.85 -22.35 50.20 -47.60 60.15 -3.85 1.50 -12.45 3.80 -17 4.50 -3.95 0.60 -111.80 1 -113.25 0.40z m95 -26.30 c3.30 -0.40 9.05 -1.10 12.75 -1.50 9.60 -1.10 13.05 -1.75 13.35 -2.55 0.15 -0.40 -0.05 -1.40 -0.40 -2.25 -1 -2.50 -2.80 -2.95 -10.35 -2.60 -6.40 0.30 -6.60 0.25 -9.30 -1.05 -1.85 -0.90 -3.65 -2.35 -5.20 -4.15 -4.25 -5.05 -3.80 -4.80 -7.55 -4.45 -1.80 0.20 -4.25 0.45 -5.45 0.65 l-2.15 0.25 0.30 2.35 c0.90 6.50 2.30 14.20 2.75 15.10 0.65 1.20 2.80 1.20 11.25 0.20z m-79.55 -1.05 c0.70 -0.75 1.30 -1.70 1.30 -2.10 0 -0.40 -0.85 -3.25 -1.85 -6.30 -1.55 -4.65 -1.85 -6.25 -1.85 -9.90 0 -4.25 0.05 -4.50 2.45 -9.20 l2.40 -4.80 -0.85 -2.80 c-0.45 -1.55 -1.30 -4.15 -1.90 -5.70 l-1 -2.85 -6.35 3.15 c-3.45 1.75 -6.85 3.65 -7.55 4.20 l-1.25 1 1.20 3.45 c1.95 5.55 9.50 25.60 11.15 29.55 0.80 1.95 1.80 3.60 2.15 3.60 0.35 0 1.20 -0.60 1.95 -1.30z m77 -27.70 c6.95 -1 10 -2 11 -3.60 0.75 -1.25 -0.95 -9.25 -4.30 -20.15 -3.50 -11.40 -7.45 -20.10 -11.90 -26.20 -2.10 -2.85 -2.70 -4.15 -2.85 -6 -0.25 -2.40 -0.20 -2.55 3.35 -11.75 1.95 -5.05 4.20 -13.25 5.50 -19.80 0.85 -4.40 1.95 -5.75 5.35 -6.70 4.25 -1.15 9 -3.70 10.45 -5.55 2.40 -3.15 3.95 -9.65 6.40 -26.75 2.80 -19.40 3.95 -31.05 2.80 -28.15 -0.45 1.15 -2.85 10.15 -7.25 27.15 -1.80 6.95 -3.05 10.95 -3.60 11.40 -0.50 0.35 -2.30 0.60 -4.20 0.60 -2.95 0 -3.50 -0.15 -4.15 -1.10 -1.35 -1.95 -0.95 -6.55 1.90 -20.40 1.50 -7.30 2.85 -13.90 3 -14.75 0.55 -2.90 -1.80 4.65 -5.05 16.25 -3.90 14.10 -4.40 15.45 -6 16.05 -3.25 1.20 -7.90 -0.05 -8.45 -2.35 -0.55 -2.05 0.45 -8.10 3.55 -22.50 1.50 -7.15 2.90 -13.60 3.05 -14.45 0.40 -2.55 -4.10 8.90 -8.30 21 -4.55 13.25 -6.40 19.30 -6.80 22.95 -0.40 3.45 0.85 8.25 3.15 12 1.70 2.75 1.75 3.10 1.50 6.20 -0.20 2.85 -0.75 4.30 -3.55 9.85 -1.80 3.55 -4 7.55 -4.80 8.90 -1.35 2.10 -1.70 2.35 -3.40 2.35 -1.70 0 -2.30 -0.40 -6.35 -4.55 -4.70 -4.70 -9.60 -8.70 -15.40 -12.40 -1.85 -1.20 -3.70 -2.65 -4.10 -3.25 -0.60 -0.80 -0.75 -2.80 -0.75 -8.55 0 -6.60 -0.15 -8.10 -1.30 -12 -3.90 -13.45 -14 -25 -28.25 -32.10 -21.80 -10.95 -42.40 0.15 -38.75 20.95 2.95 17.05 14.45 32.70 29.65 40.30 6.35 3.25 15.25 4.80 20.65 3.60 1.50 -0.30 4.35 -0.70 6.30 -0.85 l3.55 -0.25 2.50 3.40 c3.80 5.25 11.90 17.25 12.85 19.05 0.45 0.95 0.80 2.80 0.80 4.40 0 2.70 -0.10 2.90 -2.60 5.55 -3.35 3.55 -7.45 6.55 -16.40 12 -8.50 5.20 -12.50 8.75 -12.50 11.05 0 3 6.25 19.75 9.35 25 1.50 2.60 3.85 4.65 5.30 4.65 0.65 0 2.40 -0.85 3.95 -1.85 3.40 -2.25 13.15 -10.95 17.75 -15.90 8.10 -8.60 15.45 -15.80 16.45 -16.05 2.35 -0.60 3.45 -0.05 3.60 1.75 0.25 2.60 -0.70 5.75 -3.45 11.60 -2.95 6.25 -3.60 9.60 -2.95 14.75 0.55 4.25 1.10 5.55 2.65 6.25 1.55 0.65 12.85 0.10 21.05 -1.05z"/>
 </g>
 <!-- Elementos blancos (sin cambios) -->
 <g fill="#ffffff">
  <path d="M79.75 221.80 c-1.90 -2.85 -14.25 -35.95 -14.25 -38.10 0 -0.70 0.60 -1.60 1.65 -2.35 2 -1.55 14.55 -7.85 15.60 -7.85 0.40 0 0.95 0.45 1.20 0.95 0.75 1.35 4.05 11.65 4.05 12.55 0 0.40 -1.15 3 -2.55 5.75 -3.30 6.45 -3.40 8.55 -0.75 16.55 2.85 8.80 2.25 11.80 -2.65 13.20 -1.35 0.35 -1.65 0.30 -2.30 -0.70z"/>
  <path d="M151.40 222.45 c-0.50 -0.25 -1.10 -1.35 -1.40 -2.35 -0.70 -2.60 -2.50 -14.95 -2.50 -17.15 0 -1.70 0.10 -1.85 1.90 -2.15 1.05 -0.15 4.20 -0.45 6.95 -0.60 5.65 -0.40 4.85 -0.75 9.25 4.45 1.55 1.80 3.35 3.25 5.15 4.10 2.65 1.30 2.85 1.35 8.95 1 7.30 -0.45 9.40 0.05 10.60 2.30 0.45 0.90 0.70 2.45 0.60 3.85 l-0.15 2.35 -3 0.60 c-1.65 0.30 -6.15 0.95 -10 1.35 -3.85 0.45 -9.80 1.10 -13.25 1.50 -10.50 1.20 -12.20 1.30 -13.10 0.75z"/>
  <path d="M138.15 194.05 c-1.60 -0.75 -2.15 -2.10 -2.75 -7.10 -0.75 -6.45 -0.05 -10.25 3.05 -16.85 3.60 -7.70 4.35 -11.35 2.15 -10.15 -0.45 0.25 -3.55 3.25 -6.85 6.65 -20 20.65 -28 27.40 -32.25 27.40 -1.80 0 -4.40 -1.80 -6.10 -4.25 -2.75 -4 -9.05 -20.20 -9.90 -25.45 -0.85 -5.25 1.20 -7.55 12.65 -14.55 8.85 -5.40 12.95 -8.45 16.25 -11.95 2.85 -3 3.15 -4.25 1.80 -6.95 -0.95 -1.80 -9.05 -13.80 -12.85 -19 -2.80 -3.85 -2.40 -3.75 -9.10 -2.35 -4.05 0.85 -12.50 0.35 -17.15 -1 -9.55 -2.70 -18.95 -9.60 -26.20 -19.20 -7.05 -9.35 -11.60 -23.15 -10.70 -32.15 1 -9.70 6 -16.15 14.55 -18.75 4.95 -1.55 13.35 -1.55 19.25 0 11.25 2.95 23.65 11.95 30.25 21.85 3.60 5.50 4.95 8.30 6.55 13.80 1.20 4.20 1.35 5.45 1.30 11.90 -0.05 4.10 0.15 7.55 0.45 8.10 0.25 0.55 2.55 2.35 5.10 4 6.65 4.40 8 5.55 13.90 11.35 2.95 2.85 5.55 5.10 5.85 4.90 1.55 -0.95 9.35 -16.20 9.85 -19.30 0.30 -1.70 0.10 -2.35 -1.45 -4.85 -2.45 -4.05 -3.50 -8.40 -3.15 -13.40 0.30 -4.70 1.55 -9.15 6.70 -24 6.45 -18.75 10.90 -29.10 12.30 -28.60 1.05 0.35 0.45 4.25 -2.90 19.90 -3.80 17.50 -4.85 23.30 -4.45 24.60 0.40 1.25 3.35 2.45 4.95 2.05 0.70 -0.15 1.60 -0.95 2 -1.75 0.45 -0.80 2.35 -7.10 4.30 -14.05 4.70 -16.85 7.25 -24.55 8.45 -25.65 0.90 -0.85 1 -0.85 1.30 -0.05 0.55 1.35 -0.10 5.10 -3.55 21.65 -3.95 18.95 -4.15 20.70 -3.05 22.40 0.65 0.95 1.25 1.25 2.70 1.25 1.05 0 2.30 -0.30 2.75 -0.65 0.55 -0.40 1.80 -4.40 3.60 -11.35 4.70 -18.20 7.25 -27.60 7.90 -28.90 0.75 -1.60 1.50 -1.85 2.55 -0.85 0.60 0.60 0.70 1.55 0.50 4.40 -0.35 5.35 -1.60 15.80 -3.25 27.60 -2.65 18.75 -4.20 25.25 -6.65 28.50 -1.45 1.85 -6.20 4.40 -10.45 5.55 -3.40 0.95 -4.50 2.30 -5.35 6.70 -1.30 6.55 -3.55 14.75 -5.50 19.80 -4.20 10.85 -4.15 9.65 -0.35 14.90 6.10 8.50 12 23.80 15.55 40.60 1.60 7.45 1.25 9.15 -2.10 10.55 -4.35 1.80 -29.65 3.90 -32.45 2.70z"/>
 </g>
</svg>